<svg width="40" height="10" viewBox="0 0 40 10" fill="none" xmlns="http://www.w3.org/2000/svg">
<path d="M34.9465 10C37.7079 10 39.9465 7.76142 39.9465 5C39.9465 2.23858 37.7079 0 34.9465 0C32.1851 0 29.9465 2.23858 29.9465 5C29.9465 7.76142 32.1851 10 34.9465 10Z" fill="#002649"/>
<path d="M19.944 10C22.7055 10 24.944 7.76142 24.944 5C24.944 2.23858 22.7055 0 19.944 0C17.1826 0 14.944 2.23858 14.944 5C14.944 7.76142 17.1826 10 19.944 10Z" fill="#002649"/>
<path d="M5 10C7.76143 10 10 7.76142 10 5C10 2.23858 7.76143 0 5 0C2.23858 0 0 2.23858 0 5C0 7.76142 2.23858 10 5 10Z" fill="#002649"/>
<path d="M34.8644 3.84976H3.59711V6.06338H34.8644V3.84976Z" fill="#002649"/>
</svg>
