<svg
width="20"
height="20"
viewBox="0 0 20 20"
fill="none"
xmlns="http://www.w3.org/2000/svg"
    >
        <path
            d="M9.375e-06 16.1666V10.3259C9.375e-06 9.90719 0.176469 9.50406 0.486562 9.21969L4.9875 5.09469C5.55938 4.57 6.44062 4.57 7.0125 5.09469L11.5125 9.21969C11.825 9.50406 12 9.90719 12 10.3259V16.1666C12 16.9947 11.3281 17.6666 10.5 17.6666H1.5C0.671562 17.6666 0 16.9947 0 16.1666H9.375e-06ZM5.25 10.1666C4.83437 10.1666 4.5 10.5009 4.5 10.9166V12.4166C4.5 12.8322 4.83437 13.1666 5.25 13.1666H6.75C7.16563 13.1666 7.5 12.8322 7.5 12.4166V10.9166C7.5 10.5009 7.16563 10.1666 6.75 10.1666H5.25Z"
            fill="#002649"
        />
        <path
            opacity="0.4"
            d="M10 3.1665C10 2.33807 10.6719 1.6665 11.5 1.6665H18.5C19.3281 1.6665 20 2.33807 20 3.1665V16.1665C20 16.9946 19.3281 17.6665 18.5 17.6665H12.5C12.8125 17.2478 13 16.729 13 16.1665V12.6665H13.5C13.775 12.6665 14 12.4415 14 12.1665V11.1665C14 10.8915 13.775 10.6665 13.5 10.6665H13V10.3259C13 10.1009 12.9688 9.879 12.9125 9.6665H13.5C13.775 9.6665 14 9.4415 14 9.1665V8.1665C14 7.8915 13.775 7.6665 13.5 7.6665H12.5C12.225 7.6665 12 7.8915 12 8.1665V8.31026L10 6.47588V3.1665ZM16.5 7.6665C16.225 7.6665 16 7.8915 16 8.1665V9.1665C16 9.4415 16.225 9.6665 16.5 9.6665H17.5C17.775 9.6665 18 9.4415 18 9.1665V8.1665C18 7.8915 17.775 7.6665 17.5 7.6665H16.5ZM16 12.1665C16 12.4415 16.225 12.6665 16.5 12.6665H17.5C17.775 12.6665 18 12.4415 18 12.1665V11.1665C18 10.8915 17.775 10.6665 17.5 10.6665H16.5C16.225 10.6665 16 10.8915 16 11.1665V12.1665ZM12 6.1665C12 6.4415 12.225 6.6665 12.5 6.6665H13.5C13.775 6.6665 14 6.4415 14 6.1665V5.1665C14 4.8915 13.775 4.6665 13.5 4.6665H12.5C12.225 4.6665 12 4.8915 12 5.1665V6.1665ZM16.5 4.6665C16.225 4.6665 16 4.8915 16 5.1665V6.1665C16 6.4415 16.225 6.6665 16.5 6.6665H17.5C17.775 6.6665 18 6.4415 18 6.1665V5.1665C18 4.8915 17.775 4.6665 17.5 4.6665H16.5Z"
            fill="#002649"
        />
    </svg>