<svg
        width="20"
height="20"
viewBox="0 0 20 20"
fill="none"
xmlns="http://www.w3.org/2000/svg"
    >
        <path
            opacity="0.4"
            d="M19.7773 15.2891L11.4453 1.07031C10.8074 -0.0234375 9.19766 -0.0234375 8.55547 1.07031L0.227345 15.2891C-0.413671 16.3789 0.384727 17.75 1.66953 17.75H18.3336C19.6133 17.75 20.4141 16.3828 19.7773 15.2891ZM9.0625 5.5625C9.0625 5.04492 9.48242 4.625 10 4.625C10.5176 4.625 10.9375 5.04688 10.9375 5.5625V10.5625C10.9375 11.0801 10.5176 11.5 10.0352 11.5C9.55274 11.5 9.0625 11.082 9.0625 10.5625V5.5625ZM10 15.25C9.32188 15.25 8.77188 14.7 8.77188 14.0219C8.77188 13.3438 9.32148 12.7937 10 12.7937C10.6785 12.7937 11.2281 13.3438 11.2281 14.0219C11.2266 14.6992 10.6797 15.25 10 15.25Z"
            fill="#002649"
        />
    </svg>