<svg width="20" height="20" viewBox="0 0 24 24" fill="#002649" xmlns="http://www.w3.org/2000/svg"><path d="M21 7.5H15C14.1703 7.5 13.5 6.82969 13.5 6V0L21 7.5ZM8.20312 11.2031C8.64374 10.7625 9.35624 10.7625 9.79218 11.2031L11.9953 13.4062L14.1984 11.2031C14.6391 10.7625 15.3516 10.7625 15.7875 11.2031C16.2234 11.6437 16.2281 12.3562 15.7875 12.7922L13.5844 14.9953L15.7875 17.1984C16.2281 17.6391 16.2281 18.3516 15.7875 18.7875C15.3469 19.2234 14.6344 19.2281 14.1984 18.7875L11.9953 16.5844L9.79218 18.7875C9.35156 19.2281 8.63906 19.2281 8.20312 18.7875C7.76718 18.3469 7.76249 17.6344 8.20312 17.1984L10.4062 14.9953L8.20312 12.7922C7.76249 12.3516 7.76249 11.6391 8.20312 11.2031Z"></path><path opacity="0.4" d="M3 3C3 1.34531 4.34531 0 6 0H13.5V6C13.5 6.82969 14.1703 7.5 15 7.5H21V21C21 22.6547 19.6547 24 18 24H6C4.34531 24 3 22.6547 3 21V3ZM8.20312 11.2031C7.7625 11.6437 7.7625 12.3562 8.20312 12.7922L10.4062 14.9953L8.20312 17.1984C7.7625 17.6391 7.7625 18.3516 8.20312 18.7875C8.64375 19.2234 9.35625 19.2281 9.79219 18.7875L11.9953 16.5844L14.1984 18.7875C14.6391 19.2281 15.3516 19.2281 15.7875 18.7875C16.2234 18.3469 16.2281 17.6344 15.7875 17.1984L13.5844 14.9953L15.7875 12.7922C16.2281 12.3516 16.2281 11.6391 15.7875 11.2031C15.3469 10.7672 14.6344 10.7625 14.1984 11.2031L11.9953 13.4062L9.79219 11.2031C9.35156 10.7625 8.63906 10.7625 8.20312 11.2031Z"></path></svg>